# xmcd
#
# Track frame offsets:
# 150
# 25930
# 53253
# 86988
# 121389
# 160367
# 180258
# 205244
# 240993
#
# Disc length: 3724 seconds
#
#
# Revision: 0
# Processed by: cddbd v1.5.2PL0 Copyright (c) Steve Scherf et al.
# Submitted via: FreeRIP 2.96 
#
DISCID=680e8a09
DTITLE=Iny Lorentz - Die Rose von Asturien CD6v6
DYEAR=2009
DGENRE=Speech
TTITLE0=57 Die Rose von Asturien
TTITLE1=58 Die Rose von Asturien
TTITLE2=59 Die Rose von Asturien
TTITLE3=60 Die Rose von Asturien
TTITLE4=61 Die Rose von Asturien
TTITLE5=62 Die Rose von Asturien
TTITLE6=63 Die Rose von Asturien
TTITLE7=64 Die Rose von Asturien
TTITLE8=65 Die Rose von Asturien
EXTD=gelesen von Dana Geissler
EXTT0=
EXTT1=
EXTT2=
EXTT3=
EXTT4=
EXTT5=
EXTT6=
EXTT7=
EXTT8=
PLAYORDER=
